<mxfile host="app.diagrams.net" modified="2023-07-11T07:34:16.277Z" agent="Mozilla/5.0 (Windows NT 10.0; Win64; x64) AppleWebKit/537.36 (KHTML, like Gecko) Chrome/114.0.0.0 Safari/537.36" version="21.6.1" etag="Cjj067ji6Y72D7TCNQSB" type="github">
  <diagram name="第 1 页" id="K6J6FSCmO9hWV6-jV_uy">
    <mxGraphModel>
      <root>
        <mxCell id="0" />
        <mxCell id="1" parent="0" />
      </root>
    </mxGraphModel>
  </diagram>
</mxfile>
